<svg width="32" height="32" viewBox="0 0 32 32" fill="none" xmlns="http://www.w3.org/2000/svg">
<path d="M19.7564 15.9955L31.212 4.5665C31.7136 4.06484 31.9955 3.38444 31.9955 2.67499C31.9955 1.96554 31.7136 1.28515 31.212 0.783487C30.7103 0.281829 30.0299 0 29.3205 0C28.611 0 27.9306 0.281829 27.429 0.783487L16 12.2391L4.57104 0.783487C4.06939 0.281829 3.38899 -5.28583e-09 2.67954 0C1.97009 5.28583e-09 1.28969 0.281829 0.788034 0.783487C0.286375 1.28515 0.00454655 1.96554 0.00454654 2.67499C0.00454653 3.38444 0.286375 4.06484 0.788034 4.5665L12.2436 15.9955L0.788034 27.4244C0.538333 27.6721 0.34014 27.9667 0.204888 28.2914C0.0696353 28.616 0 28.9642 0 29.3159C0 29.6676 0.0696353 30.0158 0.204888 30.3405C0.34014 30.6651 0.538333 30.9598 0.788034 31.2074C1.0357 31.4571 1.33035 31.6553 1.65499 31.7906C1.97964 31.9258 2.32785 31.9955 2.67954 31.9955C3.03123 31.9955 3.37944 31.9258 3.70409 31.7906C4.02873 31.6553 4.32338 31.4571 4.57104 31.2074L16 19.7518L27.429 31.2074C27.6766 31.4571 27.9713 31.6553 28.2959 31.7906C28.6206 31.9258 28.9688 31.9955 29.3205 31.9955C29.6722 31.9955 30.0204 31.9258 30.345 31.7906C30.6697 31.6553 30.9643 31.4571 31.212 31.2074C31.4617 30.9598 31.6599 30.6651 31.7951 30.3405C31.9304 30.0158 32 29.6676 32 29.3159C32 28.9642 31.9304 28.616 31.7951 28.2914C31.6599 27.9667 31.4617 27.6721 31.212 27.4244L19.7564 15.9955Z" fill="black"/>
</svg>
