<svg width="35" height="41" viewBox="0 0 35 41" fill="none" xmlns="http://www.w3.org/2000/svg">
<path d="M17.5566 0.596252C23.6941 0.596252 28.6325 5.42583 28.6325 11.3883V14.4549C32.0773 15.5302 34.5871 18.6485 34.5871 22.3731V32.2469C34.5871 36.8578 30.7644 40.5963 26.0516 40.5963H9.12472C4.40983 40.5963 0.58712 36.8578 0.58712 32.2469V22.3731C0.58712 18.6485 3.09901 15.5302 6.54169 14.4549V11.3883C6.56202 5.42583 11.5005 0.596252 17.5566 0.596252ZM17.577 23.3648C16.6015 23.3648 15.8089 24.1399 15.8089 25.0939V29.5061C15.8089 30.48 16.6015 31.2551 17.577 31.2551C18.5728 31.2551 19.3654 30.48 19.3654 29.5061V25.0939C19.3654 24.1399 18.5728 23.3648 17.577 23.3648ZM17.5973 4.07434C13.4718 4.07434 10.1185 7.33381 10.0982 11.3485V14.0237H25.0761V11.3883C25.0761 7.35368 21.7228 4.07434 17.5973 4.07434Z" fill="gray"/>
</svg>
