<svg width="35" height="41" viewBox="0 0 35 41" fill="none" xmlns="http://www.w3.org/2000/svg">
<path d="M17.8564 0.888733C22.5916 0.888733 26.776 3.8129 28.3206 8.14447C28.4831 8.58181 28.4425 9.0589 28.2393 9.47635C28.036 9.8938 27.6723 10.2119 27.2231 10.353C26.3086 10.6691 25.2925 10.194 24.947 9.27955C23.9105 6.33551 21.0674 4.36751 17.897 4.36751C13.7491 4.36751 10.3979 7.62961 10.3755 11.6233V14.3069L10.3512 14.3109H26.3614C31.0763 14.3109 34.899 18.05 34.899 22.6619V32.5377C34.899 37.1495 31.0763 40.8887 26.3614 40.8887H9.4346C4.72175 40.8887 0.899033 37.1495 0.899033 32.5377V22.6619C0.899033 18.8691 3.50035 15.7024 7.04057 14.6846L6.81906 14.7104V11.663C6.8597 5.72125 11.8002 0.888733 17.8564 0.888733ZM17.8889 23.6539C16.9134 23.6539 16.1208 24.4291 16.1208 25.3833V29.7964C16.1208 30.7705 16.9134 31.5457 17.8889 31.5457C18.8847 31.5457 19.6773 30.7705 19.6773 29.7964V25.3833C19.6773 24.4291 18.8847 23.6539 17.8889 23.6539Z" fill="black"/>
</svg>
