<svg width="19" height="19" viewBox="0 0 19 19" fill="white" xmlns="http://www.w3.org/2000/svg">
<path d="M9.5 0C8.45615 0 7.43575 0.293245 6.56782 0.842652C5.6999 1.39206 5.02343 2.17295 4.62397 3.08658C4.22451 4.00021 4.11999 5.00555 4.32363 5.97545C4.52728 6.94536 5.02994 7.83627 5.76805 8.53553C6.50616 9.2348 7.44657 9.711 8.47036 9.90393C9.49415 10.0969 10.5553 9.99784 11.5197 9.6194C12.4841 9.24096 13.3084 8.6001 13.8883 7.77785C14.4682 6.95561 14.7778 5.98891 14.7778 5C14.7778 3.67392 14.2217 2.40215 13.232 1.46447C12.2422 0.526784 10.8998 0 9.5 0V0ZM9.5 8C8.87369 8 8.26145 7.82405 7.74069 7.49441C7.21994 7.16476 6.81406 6.69623 6.57438 6.14805C6.3347 5.59987 6.27199 4.99667 6.39418 4.41473C6.51637 3.83279 6.81796 3.29824 7.26083 2.87868C7.70369 2.45912 8.26794 2.1734 8.88221 2.05764C9.49649 1.94189 10.1332 2.0013 10.7118 2.22836C11.2905 2.45542 11.785 2.83994 12.133 3.33329C12.4809 3.82664 12.6667 4.40666 12.6667 5C12.6667 5.79565 12.333 6.55871 11.7392 7.12132C11.1453 7.68393 10.3399 8 9.5 8V8ZM19 19V18C19 16.1435 18.2215 14.363 16.8358 13.0503C15.4502 11.7375 13.5708 11 11.6111 11H7.38889C5.42923 11 3.54984 11.7375 2.16416 13.0503C0.77847 14.363 0 16.1435 0 18V19H2.11111V18C2.11111 16.6739 2.66716 15.4021 3.65694 14.4645C4.64671 13.5268 5.98914 13 7.38889 13H11.6111C13.0109 13 14.3533 13.5268 15.3431 14.4645C16.3328 15.4021 16.8889 16.6739 16.8889 18V19H19Z" fill="white"/>
</svg>
