<svg width="24" height="24" viewBox="0 0 24 24" fill="none" xmlns="http://www.w3.org/2000/svg">
<path d="M12.5 2C11.4562 2 10.4358 2.29324 9.56782 2.84265C8.6999 3.39206 8.02343 4.17295 7.62397 5.08658C7.22451 6.00021 7.11999 7.00555 7.32363 7.97545C7.52728 8.94536 8.02994 9.83627 8.76805 10.5355C9.50616 11.2348 10.4466 11.711 11.4704 11.9039C12.4941 12.0969 13.5553 11.9978 14.5197 11.6194C15.4841 11.241 16.3084 10.6001 16.8883 9.77785C17.4682 8.95561 17.7778 7.98891 17.7778 7C17.7778 5.67392 17.2217 4.40215 16.232 3.46447C15.2422 2.52678 13.8998 2 12.5 2ZM12.5 10C11.8737 10 11.2614 9.82405 10.7407 9.49441C10.2199 9.16476 9.81406 8.69623 9.57438 8.14805C9.3347 7.59987 9.27199 6.99667 9.39418 6.41473C9.51637 5.83279 9.81796 5.29824 10.2608 4.87868C10.7037 4.45912 11.2679 4.1734 11.8822 4.05764C12.4965 3.94189 13.1332 4.0013 13.7118 4.22836C14.2905 4.45542 14.785 4.83994 15.133 5.33329C15.4809 5.82664 15.6667 6.40666 15.6667 7C15.6667 7.79565 15.333 8.55871 14.7392 9.12132C14.1453 9.68393 13.3399 10 12.5 10ZM22 21V20C22 18.1435 21.2215 16.363 19.8358 15.0503C18.4502 13.7375 16.5708 13 14.6111 13H10.3889C8.42923 13 6.54984 13.7375 5.16416 15.0503C3.77847 16.363 3 18.1435 3 20V21H5.11111V20C5.11111 18.6739 5.66716 17.4021 6.65694 16.4645C7.64671 15.5268 8.98914 15 10.3889 15H14.6111C16.0109 15 17.3533 15.5268 18.3431 16.4645C19.3328 17.4021 19.8889 18.6739 19.8889 20V21H22Z" fill="#7F7F7F"/>
</svg>
